<?xml version="1.0" encoding="UTF-8" standalone="no"?><!DOCTYPE svg PUBLIC "-//W3C//DTD SVG 1.1//EN" "http://www.w3.org/Graphics/SVG/1.1/DTD/svg11.dtd"><svg width="100%" height="100%" viewBox="0 0 1772 1087" version="1.1" xmlns="http://www.w3.org/2000/svg" xmlns:xlink="http://www.w3.org/1999/xlink" xml:space="preserve" xmlns:serif="http://www.serif.com/" style="fill-rule:evenodd;clip-rule:evenodd;stroke-linecap:round;stroke-linejoin:round;stroke-miterlimit:1.5;"><g><g><path d="M967.308,377.18l25.529,23.36c0,0 6.156,8.42 14.094,-0.021c-0,-0 6.677,-7.686 -0.504,-13.859l-26.457,-25.323c-0,0 -8.189,-4.061 -12.347,1.938c0,0 -7.811,7.826 -0.315,13.905Z" style="fill:#fff;stroke:#fff;stroke-width:3.5px;"/><path d="M836.328,376.699l-25.529,23.361c-0,-0 -6.156,8.419 -14.093,-0.022c-0,-0 -6.678,-7.685 0.504,-13.858l26.456,-25.324c0,0 8.19,-4.06 12.347,1.939c0,-0 7.811,7.825 0.315,13.904Z" style="fill:#fff;stroke:#fff;stroke-width:3.5px;"/><path d="M1004.23,310.571l34.604,-0.149c0,0 10.234,2.012 10.342,-9.574c-0,-0 -0.306,-10.177 -9.77,-9.842l-36.617,-0.664c0,-0 -8.771,2.57 -7.758,9.798c0,-0 -0.432,11.048 9.199,10.431Z" style="fill:#fff;stroke:#fff;stroke-width:3.5px;"/><path d="M762.968,310.571l34.604,-0.149c-0,0 10.234,2.012 10.341,-9.574c0,-0 -0.305,-10.177 -9.769,-9.842l-36.617,-0.664c-0,-0 -8.772,2.57 -7.758,9.798c-0,-0 -0.432,11.048 9.199,10.431Z" style="fill:#fff;stroke:#fff;stroke-width:3.5px;"/><path d="M980.372,234.843l25.141,-23.778c-0,-0 8.841,-5.533 0.994,-14.058c0,-0 -7.183,-7.215 -13.858,-0.497l-27.165,24.562c-0,-0 -4.641,7.875 1.042,12.454c0,-0 7.242,8.355 13.846,1.317Z" style="fill:#fff;stroke:#fff;stroke-width:3.5px;"/><path d="M911.595,196.798l-0.476,-34.601c0,-0 1.915,-10.253 -9.672,-10.251c0,0 -10.172,0.402 -9.749,9.863l-0.318,36.621c0,0 2.653,8.747 9.872,7.665c-0,0 11.052,0.328 10.343,-9.297Z" style="fill:#fff;stroke:#fff;stroke-width:3.5px;"/><path d="M835.594,222.136l-24.488,-24.449c-0,-0 -5.784,-8.679 -14.081,-0.592c0,0 -7.005,7.387 -0.1,13.867l25.33,26.451c-0,-0 8.004,4.413 12.419,-1.399c0,0 8.145,-7.478 0.92,-13.878Z" style="fill:#fff;stroke:#fff;stroke-width:3.5px;"/><path d="M755.843,56.314c-0,-0 68.962,-93.844 189.655,-34.634c-0,-0 94.932,-35.372 136.84,54.596c0,-0 182.147,5.895 165.326,180.111c-0,0 145.981,127.007 -16.821,237.896c-0,-0 -17.422,137.922 -158.597,115.694c-0,0 18.022,43.254 22.227,91.314c0,-0 3.075,17.831 -12.476,16.847c-0,-0 -12.402,1.772 -14.174,-14.961c0,0 -14.32,-109.175 -71.511,-140.414c-0,-0 -14.4,-12.641 -1.801,-22.821c-0,-0 10.986,-9.273 24.995,8.062c0,0 32.587,42.031 82.538,40.063c0,-0 76.526,2.15 97.688,-84.155l-36.418,-1.904c0,-0 -15.01,-1.476 -14.517,-15.502c-0,-0 -1.477,-13.78 15.994,-12.303c-0,-0 40.847,4.921 54.134,-3.445c0,-0 64.377,-32.559 62.455,-97.44c-0,0 -1.923,-68.725 -43.735,-86.027c0,0 -19.704,36.526 -31.238,42.773c-0,0 -12.976,13.938 -24.991,0.481c-0,0 -10.574,-3.364 3.364,-21.627c-0,0 75.454,-64.4 11.534,-149.466c0,0 -34.122,-54.307 -110.537,-53.826c-0,-0 3.845,26.432 -7.209,42.773c-0,-0 -15.379,30.277 -28.355,37.006c-0,-0 -15.86,5.286 -19.705,-1.923c0,0 -8.651,-6.728 1.442,-19.704c-0,-0 32.2,-20.666 28.836,-58.152c-0,-0 -3.364,-55.269 -63.92,-61.997c0,-0 -55.749,-11.535 -79.779,45.176c0,-0 -1.303,15.433 -10.223,16.971c0,-0 -20.608,3.691 -17.532,-14.457c-0,0 9.535,-32.911 27.99,-50.136c-0,0 -61.209,-39.063 -128.877,18.763l-3.383,3.076c-0,-0 46.445,6.151 70.128,66.745c0,0 4.307,10.15 3.691,17.84c-0.615,7.689 -3.383,9.535 -9.535,11.996c-6.151,2.46 -14.456,-0 -19.07,-9.843c-4.614,-9.843 -18.762,-51.674 -60.901,-61.517c-0,0 -70.129,-23.991 -125.494,28.298c0,0 -28.912,20.916 -38.447,59.363l-1.538,7.382l53.211,0c0,0 10.458,2.769 9.536,15.072c-0,-0 -0.308,9.535 -7.075,9.535c0,-0 -38.448,-1.538 -53.212,-0.308c0,0 -53.211,11.381 -69.513,55.365c-0,0 -12.611,22.133 -10.766,47.662c0,0 41.832,-1.845 54.135,3.384c-0,-0 15.687,-1.538 40.908,27.067l1.538,4.306c0,0 18.763,-11.073 33.219,3.691l69.514,-31.988c-0,-0 17.532,12.303 22.453,12.918c4.922,0.615 -78.433,41.524 -78.433,41.524c-0,-0 -3.076,31.681 -22.761,35.679c-19.686,3.999 -32.604,-1.538 -42.447,-17.532c0,-0 -10.765,-11.688 0,-28.605c0,-0 -16.917,-27.067 -43.984,-26.452c0,-0 -30.758,-0.615 -33.526,9.227c-0,0 1.418,72.782 67.549,95.082c-0,-0 30.758,27.298 101.117,7.305c0,-0 25.76,-62.67 62.286,-64.977c-0,-0 23.068,3.845 6.151,24.607c0,-0 -49.597,20.377 -42.677,73.435c0,-0 10.766,81.895 81.125,75.935c-0,-0 51.135,5.574 103.809,-32.489c-0,-0 74.589,-54.212 147.255,-54.212c-0,0 0.942,-4.866 3.336,-6.378c2.394,-1.511 -39.055,-36.158 -39.055,-36.158l15.118,-14.866l37.418,32.127l3.527,3.44c0,0 46.615,-9.701 45.481,33.008c-0,0 2.772,34.646 -30.741,32.631c0,-0 -22.425,3.653 -31.244,-17.89c0,-0 -51.752,-6.311 -134.799,50.37c-0,-0 -6.496,3.103 -1.86,10.417c-0,-0 111.489,58.129 122.562,147.263c-0,-0 1.812,14.98 -7.889,15.232c0,-0 -14.74,5.039 -18.646,-11.591c0,0 -31.027,-79.671 -77.549,-102.74c-0,-0 -41.524,-28.067 -42.677,-39.217l-2.076,-3.691c-0,0 -40.909,25.53 -90.122,22.454c0,-0 -100.845,-4.302 -112.534,-102.198c0,0 -128.569,23.135 -175.629,-81.901c0,-0 -24.299,-29.778 -17.224,-94.271c-0,-0 0.922,-76.49 73.512,-112.169c-0,-0 23.068,-82.432 78.433,-111.96c0,-0 33.833,-30.699 105.193,-24.115Z" style="fill:#fff;stroke:#fff;stroke-width:4.17px;"/><path d="M783.011,172.539l-11.073,-9.228c0,0 4.922,-13.226 -0.922,-24.606c-5.845,-11.381 -17.84,-30.758 -51.059,-19.07c-0,-0 -27.682,20.608 -13.534,45.83l3.691,2.768c0,-0 -30.45,19.07 -23.376,65.207c0,0 15.072,-11.073 23.376,-6.767c0,0 -2.153,-38.755 17.84,-44.907c0,0 18.147,3.384 27.067,0.616l13.226,11.38c0,0 5.537,-19.685 14.764,-21.223Z" style="fill:#fff;stroke:#fff;stroke-width:4.17px;"/><path d="M964.436,130.582c0,0 -13.287,-28.051 12.058,-38.878c-0,-0 35.679,-9.203 35.433,24.311c-0,0 2.215,24.41 -24.114,27.363l-4.735,-0.502l-22.362,41.418c-0,-0 -5.985,6.771 -13.701,-0.315c-0,-0 -9.449,-5.355 -1.417,-15.906l18.838,-37.491Z" style="fill:#fff;stroke:#fff;stroke-width:4.17px;"/><path d="M1029.55,240.126l74.016,-25c0,-0 1.181,-32.678 36.024,-31.103c0,0 28.347,-4.921 33.072,26.378c-0,0 4.33,31.694 -23.229,37.206c-0,-0 -0.615,81.93 -43.984,112.65l66.745,26.414l6.152,2.461c-0,-0 1.538,-8.613 20.915,-9.228c0,0 25.53,-1.845 23.684,26.452c0,0 3.076,22.146 -25.837,22.146c0,0 -22.453,3.999 -23.991,-18.762l-99.657,-32.296c0,-0 -40.293,-4.614 -46.445,-11.381c0,0 -8.304,-17.532 5.537,-19.685c-0,-0 29.528,5.229 39.985,0.923c0,-0 53.212,2.443 49.214,-97.811c-0,-0 -10.458,-6.442 -13.226,-11.364l-67.668,20.608c-0,0 -16.302,8.305 -18.763,-3.691c0,0 -6.004,-10.764 7.456,-14.917Z" style="fill:#fff;stroke:#fff;stroke-width:4.17px;"/><circle cx="641.409" cy="279.608" r="19.574" style="fill:#fff;stroke:#fff;stroke-width:3.5px;"/><circle cx="901.504" cy="396.754" r="19.574" style="fill:#fff;stroke:#fff;stroke-width:3.5px;"/><circle cx="702.003" cy="245.159" r="19.574" style="fill:#fff;stroke:#fff;stroke-width:3.5px;"/><path d="M894.214,460.606c0,-0 26.76,-25.219 57.826,-31.834c-0,0 17.532,-6.614 20.608,7.227c-0,0 1.845,12.919 -12.611,15.072c-0,-0 -32.604,6.459 -50.136,26.759c-0,0 -13.841,12.304 -19.378,-1.845c0,-0 -6.151,-8.305 3.691,-15.379Z" style="fill:#fff;stroke:#fff;stroke-width:3.5px;"/><path d="M848.385,279.608c-0,0 -0.635,-35.54 32.286,-39.539c-0,0 32.329,-7.967 50.003,5.09c0,0 28.133,8.136 25.672,44.124c-0,-0 3.691,24.914 -21.223,35.987c-0,-0 -16.61,6.459 -20.916,17.839c0,0 0,15.072 -2.153,15.995c-2.153,0.922 -12.043,9.401 -23.429,-0.836c-0,0 -6.882,-9.764 -0,-23.307c6.881,-13.544 29.364,-25.867 32.453,-35.778c3.09,-9.912 2.352,-21.969 -3.308,-24.922c0,0 -13.912,-18.947 -37.099,-1.23c-0,0 -4.978,7.136 -5.47,12.796c-0,-0 -8.612,11.073 -16.487,6.397c0,0 -10.324,0.113 -10.329,-12.616Z" style="fill:#fff;stroke:#fff;stroke-width:3.5px;"/><path d="M812.515,454.044l31.024,-41.103c-0,-0 5.669,-6.457 13.701,0.157c-0,0 8.189,7.402 -0,15.119l-22.993,34.803l-2.047,3.622l-1.89,2.362c0,0 5.197,2.993 4.567,13.701c-0.63,10.709 -4.006,23.938 -26.964,24.095c0,-0 -22.485,0.472 -24.06,-21.103c0,0 -5.512,-22.992 13.071,-27.401c0,-0 13.386,-5.04 15.591,-4.252Z" style="fill:#fff;stroke:#fff;stroke-width:3.5px;"/></g><g transform="matrix(327.608,0,0,327.608,1778.17,1082.66)"></g><text x="-23.995px" y="1082.66px" style="font-family:'Arial-BoldMT', 'Arial', sans-serif;font-weight:700;font-size:327.608px;fill:#fff;">BrainSKwiz</text></g></svg>