<?xml version="1.0" encoding="UTF-8" standalone="no"?><!DOCTYPE svg PUBLIC "-//W3C//DTD SVG 1.1//EN" "http://www.w3.org/Graphics/SVG/1.1/DTD/svg11.dtd"><svg width="100%" height="100%" viewBox="0 0 1772 1099" version="1.1" xmlns="http://www.w3.org/2000/svg" xmlns:xlink="http://www.w3.org/1999/xlink" xml:space="preserve" xmlns:serif="http://www.serif.com/" style="fill-rule:evenodd;clip-rule:evenodd;stroke-linejoin:round;stroke-miterlimit:2;"><g><g><path d="M950.392,375.096l25.529,23.361c0,-0 6.156,8.419 14.093,-0.022c0,0 6.678,-7.685 -0.504,-13.858l-26.456,-25.323c-0,-0 -8.19,-4.061 -12.347,1.938c-0,-0 -7.811,7.826 -0.315,13.904Z" style="fill:#f69403;"/><path d="M819.412,374.616l-25.529,23.36c-0,0 -6.156,8.42 -14.094,-0.021c0,-0 -6.677,-7.686 0.504,-13.859l26.457,-25.323c0,0 8.189,-4.061 12.347,1.938c-0,0 7.811,7.826 0.315,13.905Z" style="fill:#f69403;"/><path d="M987.311,308.488l34.604,-0.149c0,-0 10.234,2.011 10.342,-9.575c-0,0 -0.306,-10.176 -9.77,-9.842l-36.617,-0.664c0,0 -8.772,2.571 -7.758,9.799c0,-0 -0.432,11.048 9.199,10.431Z" style="fill:#f69403;"/><path d="M746.052,308.488l34.604,-0.149c-0,-0 10.234,2.011 10.341,-9.575c0,0 -0.305,-10.176 -9.769,-9.842l-36.617,-0.664c-0,0 -8.772,2.571 -7.758,9.799c-0,-0 -0.432,11.048 9.199,10.431Z" style="fill:#f69403;"/><path d="M963.456,232.759l25.141,-23.778c-0,0 8.841,-5.533 0.994,-14.058c0,0 -7.183,-7.214 -13.858,-0.497l-27.166,24.562c0,0 -4.64,7.875 1.043,12.455c0,-0 7.242,8.355 13.846,1.316Z" style="fill:#f69403;"/><path d="M894.679,194.715l-0.476,-34.601c0,-0 1.915,-10.253 -9.672,-10.251c0,0 -10.172,0.402 -9.749,9.862l-0.318,36.622c0,-0 2.653,8.747 9.871,7.665c0,0 11.053,0.328 10.344,-9.297Z" style="fill:#f69403;"/><path d="M818.678,220.053l-24.488,-24.449c-0,-0 -5.784,-8.68 -14.081,-0.592c-0,-0 -7.006,7.387 -0.1,13.867l25.33,26.451c-0,-0 8.004,4.413 12.419,-1.399c-0,-0 8.144,-7.479 0.92,-13.878Z" style="fill:#f69403;"/><path d="M737.807,54.23c0,0 68.963,-93.843 189.656,-34.634c-0,0 94.932,-35.371 136.84,54.596c0,0 182.146,5.895 165.325,180.112c0,-0 145.982,127.007 -16.82,237.895c-0,0 -17.422,137.922 -158.598,115.695c0,-0 18.023,43.254 22.228,91.313c0,0 3.075,17.832 -12.477,16.848c0,-0 -12.401,1.771 -14.173,-14.961c0,-0 -14.32,-109.176 -71.511,-140.415c-0,0 -14.4,-12.641 -1.801,-22.821c-0,0 10.986,-9.273 24.995,8.063c0,-0 32.586,42.031 82.538,40.062c-0,0 76.526,2.151 97.688,-84.154l-36.418,-1.904c0,-0 -15.01,-1.477 -14.518,-15.502c0,-0 -1.476,-13.78 15.995,-12.304c-0,0 40.846,4.922 54.134,-3.445c-0,0 64.377,-32.558 62.455,-97.439c-0,-0 -1.923,-68.726 -43.735,-86.027c0,-0 -19.704,36.525 -31.239,42.773c0,0 -12.976,13.937 -24.991,0.481c0,-0 -10.573,-3.364 3.365,-21.627c-0,-0 75.453,-64.4 11.534,-149.466c-0,0 -34.123,-54.307 -110.538,-53.827c0,0 3.845,26.433 -7.208,42.773c-0,0 -15.38,30.278 -28.356,37.006c0,0 -15.859,5.287 -19.704,-1.922c-0,0 -8.651,-6.728 1.442,-19.704c-0,-0 32.2,-20.666 28.835,-58.153c0,0 -3.364,-55.268 -63.919,-61.997c-0,0 -55.749,-11.534 -79.779,45.176c-0,0 -1.303,15.433 -10.223,16.971c-0,0 -20.608,3.691 -17.532,-14.456c-0,-0 9.535,-32.911 27.99,-50.136c-0,0 -61.209,-39.063 -128.877,18.763l-3.384,3.075c0,0 46.445,6.152 70.129,66.746c0,-0 4.306,10.15 3.691,17.839c-0.615,7.69 -3.383,9.536 -9.535,11.996c-6.152,2.461 -14.456,0 -19.07,-9.842c-4.614,-9.843 -18.763,-51.674 -60.901,-61.517c-0,0 -70.129,-23.991 -125.494,28.298c0,-0 -28.913,20.915 -38.448,59.363l-1.538,7.382l53.212,0c0,0 10.458,2.768 9.535,15.072c0,-0 -0.307,9.535 -7.074,9.535c-0,-0 -38.448,-1.538 -53.212,-0.308c0,0 -53.212,11.381 -69.513,55.365c-0,-0 -12.611,22.133 -10.766,47.662c0,0 41.831,-1.845 54.135,3.383c-0,0 15.686,-1.537 40.908,27.068l1.538,4.306c-0,-0 18.763,-11.073 33.219,3.691l69.513,-31.989c0,0 17.533,12.304 22.454,12.919c4.921,0.615 -78.434,41.523 -78.434,41.523c0,0 -3.075,31.681 -22.761,35.68c-19.685,3.998 -32.603,-1.538 -42.446,-17.532c0,-0 -10.765,-11.688 0,-28.605c0,-0 -16.917,-27.068 -43.984,-26.453c-0,0 -30.758,-0.615 -33.527,9.228c0,-0 1.419,72.782 67.549,95.081c0,0 30.758,27.298 101.118,7.305c-0,0 25.76,-62.67 62.285,-64.976c0,-0 23.069,3.844 6.152,24.606c-0,0 -49.598,20.378 -42.677,73.435c-0,0 10.765,81.895 81.125,75.935c-0,0 51.135,5.575 103.809,-32.489c-0,0 74.588,-54.211 147.255,-54.211c-0,0 0.942,-4.866 3.336,-6.378c2.394,-1.512 -39.056,-36.158 -39.056,-36.158l15.119,-14.866l37.417,32.126l3.528,3.441c-0,-0 46.615,-9.701 45.481,33.008c-0,0 2.771,34.646 -30.741,32.63c0,0 -22.425,3.654 -31.244,-17.89c-0,0 -51.752,-6.31 -134.8,50.371c0,-0 -6.496,3.102 -1.859,10.416c-0,0 111.488,58.13 122.561,147.263c0,0 1.813,14.981 -7.888,15.233c-0,-0 -14.74,5.039 -18.646,-11.591c0,-0 -31.028,-79.672 -77.549,-102.74c-0,-0 -41.524,-28.067 -42.677,-39.217l-2.077,-3.691c0,-0 -40.908,25.529 -90.121,22.453c-0,0 -100.846,-4.302 -112.534,-102.197c0,-0 -128.569,23.135 -175.629,-81.902c-0,0 -24.299,-29.777 -17.225,-94.271c0,0 0.923,-76.489 73.512,-112.169c0,0 23.069,-82.431 78.434,-111.959c-0,-0 33.833,-30.699 105.192,-24.116Z" style="fill:url(#_Linear1);"/><path d="M766.095,170.456l-11.073,-9.228c0,0 4.921,-13.226 -0.923,-24.606c-5.844,-11.381 -17.839,-30.759 -51.058,-19.071c-0,0 -27.683,20.608 -13.534,45.83l3.691,2.768c0,0 -30.45,19.071 -23.376,65.208c-0,-0 15.071,-11.073 23.376,-6.767c0,-0 -2.153,-38.755 17.84,-44.907c-0,0 18.147,3.383 27.067,0.615l13.226,11.381c0,-0 5.537,-19.686 14.764,-21.223Z" style="fill:#607be9;"/><path d="M947.52,128.499c0,-0 -13.287,-28.051 12.057,-38.878c0,-0 35.68,-9.203 35.434,24.311c-0,-0 2.214,24.41 -24.115,27.362l-4.734,-0.502l-22.362,41.418c-0,0 -5.985,6.772 -13.701,-0.315c-0,0 -9.449,-5.354 -1.418,-15.905l18.839,-37.491Z" style="fill:#607be9;"/><path d="M1012.63,238.043l74.016,-25c0,-0 1.181,-32.678 36.024,-31.103c0,-0 28.347,-4.921 33.071,26.378c0,0 4.331,31.693 -23.228,37.205c-0,0 -0.615,81.93 -43.984,112.651l66.745,26.414l6.151,2.46c0,0 1.538,-8.612 20.916,-9.227c0,-0 25.529,-1.846 23.684,26.452c-0,-0 3.076,22.146 -25.837,22.146c-0,-0 -22.454,3.998 -23.991,-18.763l-99.657,-32.296c0,0 -40.293,-4.613 -46.445,-11.38c0,-0 -8.305,-17.532 5.537,-19.686c-0,0 29.528,5.229 39.985,0.923c0,0 53.212,2.444 49.213,-97.811c0,0 -10.457,-6.442 -13.226,-11.363l-67.668,20.608c0,-0 -16.301,8.305 -18.762,-3.691c-0,-0 -6.004,-10.764 7.456,-14.917Z" style="fill:#607be9;"/><circle cx="624.493" cy="277.525" r="19.574" style="fill:#607be9;"/><circle cx="884.588" cy="394.671" r="19.574" style="fill:#f69403;"/><circle cx="685.087" cy="243.076" r="19.574" style="fill:#1d1d6c;"/><path d="M877.298,458.522c0,0 26.76,-25.218 57.826,-31.833c-0,0 17.532,-6.614 20.608,7.227c-0,-0 1.845,12.918 -12.611,15.071c-0,0 -32.604,6.46 -50.136,26.76c-0,-0 -13.841,12.303 -19.378,-1.846c0,0 -6.151,-8.304 3.691,-15.379Z" style="fill:#607be9;"/><path d="M831.468,277.525c0,0 -0.634,-35.54 32.287,-39.539c-0,0 32.329,-7.968 50.003,5.09c0,-0 28.132,8.136 25.672,44.123c-0,0 3.691,24.914 -21.223,35.987c-0,0 -16.61,6.46 -20.916,17.84c-0,0 -0,15.072 -2.153,15.994c-2.153,0.923 -12.043,9.401 -23.429,-0.835c-0,-0 -6.882,-9.764 -0,-23.307c6.881,-13.544 29.364,-25.868 32.453,-35.779c3.09,-9.911 2.352,-21.968 -3.308,-24.921c0,0 -13.912,-18.947 -37.099,-1.23c-0,-0 -4.978,7.136 -5.47,12.795c-0,0 -8.613,11.073 -16.487,6.398c0,-0 -10.325,0.113 -10.33,-12.616Z" style="fill:#f69403;"/><path d="M795.599,451.96l31.024,-41.103c-0,0 5.669,-6.456 13.7,0.158c0,-0 8.19,7.402 0,15.118l-22.992,34.804l-2.047,3.622l-1.89,2.362c0,0 5.197,2.992 4.567,13.701c-0.63,10.709 -4.006,23.937 -26.964,24.095c0,-0 -22.485,0.472 -24.06,-21.103c-0,0 -5.512,-22.992 13.071,-27.402c-0,0 13.386,-5.039 15.591,-4.252Z" style="fill:#1b1a68;"/></g><g transform="matrix(5.32583,0,0,5.32583,-764.286,-569.912)"><text x="139px" y="312.423px" style="font-family:'Arial-BoldMT', 'Arial', sans-serif;font-weight:700;font-size:61.513px;fill:#1b1a68;">Brain</text><text x="296.237px" y="312.423px" style="font-family:'Arial-BoldMT', 'Arial', sans-serif;font-weight:700;font-size:61.513px;fill:#f69403;">SK</text><g transform="matrix(61.513,0,0,61.513,477.382,312.423)"></g><text x="381.688px" y="312.423px" style="font-family:'Arial-BoldMT', 'Arial', sans-serif;font-weight:700;font-size:61.513px;fill:#1d1d6c;">wiz</text></g></g><defs><linearGradient id="_Linear1" x1="0" y1="0" x2="1" y2="0" gradientUnits="userSpaceOnUse" gradientTransform="matrix(-84.3331,420.795,-420.795,-84.3331,929.78,149.045)"><stop offset="0" style="stop-color:#607be9;stop-opacity:1"/><stop offset="0.19" style="stop-color:#4353b3;stop-opacity:1"/><stop offset="0.4" style="stop-color:#272b7f;stop-opacity:1"/><stop offset="1" style="stop-color:#1b1a68;stop-opacity:1"/></linearGradient></defs></svg>